<?xml version="1.0" encoding="utf-8"?>
<!-- Generator: Adobe Illustrator 18.1.0, SVG Export Plug-In . SVG Version: 6.00 Build 0)  -->
<svg version="1.1" id="レイヤー_1" xmlns="http://www.w3.org/2000/svg" xmlns:xlink="http://www.w3.org/1999/xlink" x="0px"
	 y="0px" viewBox="100 120 402 402" enable-background="new 100 120 402 402" xml:space="preserve">
<g>
	<g>
		<path d="M343,167.3h-83.9c-3.3,0-5.8-2.7-5-5.5l10.2-35.2c0.6-2,2.6-3.3,5-3.3h63.5c2.3,0,4.4,1.4,5,3.3l10.2,35.2
			C348.8,164.6,346.3,167.3,343,167.3z"/>
		<path d="M259.1,477.2H343c3.3,0,5.8,2.7,5,5.5l-10.2,35.2c-0.6,2-2.6,3.3-5,3.3h-63.5c-2.3,0-4.4-1.4-5-3.3l-10.2-35.2
			C253.4,479.9,255.8,477.2,259.1,477.2z"/>
		<path d="M456.1,364.2v-83.9c0-3.3,2.7-5.8,5.5-5l35.2,10.2c2,0.6,3.3,2.6,3.3,5V354c0,2.3-1.4,4.4-3.3,5l-35.2,10.2
			C458.7,370,456.1,367.5,456.1,364.2z"/>
		<path d="M146.1,280.3v83.9c0,3.3-2.7,5.8-5.5,5l-35.2-10.2c-2-0.6-3.3-2.6-3.3-5v-63.5c0-2.3,1.4-4.4,3.3-5l35.2-10.2
			C143.4,274.5,146.1,277,146.1,280.3z"/>
		<path d="M440.3,242.3L381,183c-2.3-2.3-2.2-6,0.4-7.4l32.1-17.7c1.8-1,4.2-0.5,5.9,1.1l44.9,44.9c1.7,1.7,2.1,4.1,1.1,5.9
			L447.7,242C446.3,244.5,442.7,244.7,440.3,242.3z"/>
		<path d="M161.8,402.2l59.3,59.3c2.3,2.3,2.2,6-0.4,7.4l-32.1,17.7c-1.8,1-4.2,0.5-5.9-1.1l-44.9-44.9c-1.7-1.7-2.1-4.1-1.1-5.9
			l17.7-32.1C155.8,400,159.5,399.8,161.8,402.2z"/>
		<path d="M381,461.5l59.3-59.3c2.3-2.3,6-2.2,7.4,0.4l17.7,32.1c1,1.8,0.5,4.2-1.1,5.9l-44.9,44.9c-1.7,1.7-4.1,2.1-5.9,1.1
			l-32.1-17.7C378.8,467.5,378.6,463.9,381,461.5z"/>
		<path d="M221.1,183l-59.3,59.3c-2.3,2.3-6,2.2-7.4-0.4l-17.7-32.1c-1-1.8-0.5-4.2,1.1-5.9l44.9-44.9c1.7-1.7,4.1-2.1,5.9-1.1
			l32.1,17.7C223.3,177,223.5,180.6,221.1,183z"/>
		<path d="M221.1,183l-59.3,59.3c-2.3,2.3-6,2.2-7.4-0.4l-17.7-32.1c-1-1.8-0.5-4.2,1.1-5.9l44.9-44.9c1.7-1.7,4.1-2.1,5.9-1.1
			l32.1,17.7C223.3,177,223.5,180.6,221.1,183z"/>
	</g>
	<path display="none" d="M301.1,489.7c-92.4,0-167.5-75.1-167.5-167.5s75.1-167.5,167.5-167.5c92.4,0,167.5,75.1,167.5,167.5
		S393.4,489.7,301.1,489.7z M301.1,174.7c-81.3,0-147.5,66.2-147.5,147.5s66.2,147.5,147.5,147.5c81.3,0,147.5-66.2,147.5-147.5
		S382.4,174.7,301.1,174.7z"/>
</g>
<path display="none" d="M301.1,489.7c-92.4,0-167.5-75.1-167.5-167.5s75.1-167.5,167.5-167.5c92.4,0,167.5,75.1,167.5,167.5
	S393.4,489.7,301.1,489.7z M301.1,174.7c-81.3,0-147.5,66.2-147.5,147.5s66.2,147.5,147.5,147.5c81.3,0,147.5-66.2,147.5-147.5
	S382.4,174.7,301.1,174.7z"/>
<g display="none">
	<path display="inline" d="M271.9,317.2H169c-2.5,0-4.5-2.5-4.5-5.7v-18.7c0-3.1,2-5.7,4.5-5.7h102.8"/>
	<path display="inline" d="M330.2,287.2h89.3c2.1,0,3.9,2.5,3.9,5.7v18.7c0,3.1-1.7,5.7-3.9,5.7h-89.2"/>
	<path display="inline" d="M316.1,331.4V447c0,2.4-2.5,4.3-5.7,4.3h-18.7c-3.1,0-5.7-1.9-5.7-4.3V331.4"/>
	<path display="inline" d="M286.1,273.1v-75.9c0-2.2,2.5-3.9,5.7-3.9h18.7c3.1,0,5.7,1.8,5.7,3.9v75.9"/>
	<path display="inline" d="M289.6,335l-75.9,75.9c-1.8,1.8-5,1.4-7.2-0.8l-13.2-13.2c-2.2-2.2-2.6-5.4-0.8-7.2l75.9-75.9L289.6,335z
		"/>
	<path display="inline" d="M312.6,335l75.9,75.9c1.8,1.8,5,1.4,7.2-0.8l13.2-13.2c2.2-2.2,2.6-5.4,0.8-7.2l-75.9-75.9L312.6,335z"/>
</g>
<path display="none" d="M292.3,307.1L169,317.2c-2.5,0-4.5-2.5-4.5-5.7v-18.7c0-3.1,2-5.7,4.5-5.7L291.1,298"/>
<path display="none" d="M304,292.7l115.6-5.4c2.1,0,3.9,2.5,3.9,5.7v18.7c0,3.1-1.7,5.7-3.9,5.7l-110.4-20.9"/>
<path display="none" d="M294.3,294.9l-8.2-97.8c0-2.2,2.5-3.9,5.7-3.9h18.7c3.1,0,5.7,1.8,5.7,3.9l-15,95.1"/>
<path display="none" d="M297.6,312.2l-84,98.6c-1.8,1.8-5,1.4-7.2-0.8l-13.2-13.2c-2.2-2.2-2.6-5.4-0.8-7.2l99.9-82.6L297.6,312.2z"
	/>
<path display="none" d="M309.1,308.1l79.4,102.8c1.8,1.8,5,1.4,7.2-0.8l13.2-13.2c2.2-2.2,2.6-5.4,0.8-7.2L311.1,300L309.1,308.1z"
	/>
<g>
	<g>
		<polyline points="308.6,315.4 327.2,457.1 284.9,464.6 304,317.3 		"/>
		<polyline points="294,301.7 274.9,195 317.2,189.4 298.1,300.3 		"/>
	</g>
	<g>
		<polyline points="306.9,303 434.1,284.8 440.8,327.2 308.7,308.1 		"/>
		<polyline points="295.2,314.7 168.1,333.2 161.3,290.8 293.4,309.9 		"/>
	</g>
	<polyline points="307.9,308.6 421.2,395.6 396.6,430.9 306,313.2 	"/>
	<polyline points="303.8,313.3 216.7,426.7 181.5,402 299.1,311.4 	"/>
	<g>
		<path d="M468,308.4c-0.9-11.4-3-22.4-6.1-33l-23.4-6.8c4.2,10.7,7.2,22.1,8.8,33.8c0.9,6.5,1.3,13.1,1.3,19.9
			c0,81.3-66.2,147.5-147.5,147.5c-81.3,0-147.5-66.2-147.5-147.5c0-6.7,0.5-13.3,1.3-19.8c1.6-11.8,4.6-23.1,8.8-33.8l-23.4,6.8
			c-3.1,10.6-5.2,21.7-6.1,33c-0.4,4.5-0.6,9.1-0.6,13.7c0,92.4,75.1,167.5,167.5,167.5c92.4,0,167.5-75.1,167.5-167.5
			C468.6,317.6,468.4,313,468,308.4z"/>
		<path d="M183.8,233c27-35.4,69.5-58.2,117.3-58.2c47.9,0,90.5,22.9,117.5,58.4c7,9.2,13,19.3,17.7,30l11.8-21.3
			c-5.4-9.9-11.8-19.1-19-27.6c-30.7-36.4-76.7-59.5-127.9-59.5c-51.2,0-97,23.1-127.8,59.3c-7.2,8.5-13.6,17.7-19,27.6l11.8,21.3
			C170.8,252.2,176.7,242.2,183.8,233z"/>
	</g>
	<circle cx="301.1" cy="309" r="10"/>
</g>
<polygon points="166,262.9 161.9,238.2 190.4,220.8 214.7,262.9 "/>
<polygon points="387.5,263.2 411.8,221 436.2,227 436.2,263.2 "/>
</svg>
